<svg width="870" height="389" viewBox="0 0 870 389" fill="none" xmlns="http://www.w3.org/2000/svg">
<path d="M629.804 20.3247C626.241 12.3222 620.727 5.33498 613.78 0C605.399 0.418039 598.073 5.89237 595.326 13.8948L572.633 80.2834C570.005 87.9873 559.594 89.1817 555.274 82.2741C550.437 74.5304 541.857 69.932 532.74 70.2107C523.284 70.4894 514.764 75.9637 510.544 84.424L492.708 126.805L450.147 84.2449C442.782 76.8794 432.789 72.7388 422.377 72.7388C416.485 72.7388 410.852 75.0878 406.671 79.2483C397.992 87.9276 383.938 87.9276 375.278 79.2483L354.098 58.0676C347.628 51.598 338.829 47.9551 329.672 47.9551C318.146 47.9551 307.397 53.6882 300.987 63.2633L166 254.586L732.164 245.17L629.804 20.3247Z" fill="#F6E6A4"/>
<path d="M280.445 133C280.106 133 279.768 133 279.429 133C233.067 133.219 188.675 151.772 155.232 183.861L6.10352e-05 332.743H497.944C488.529 220.868 394.748 133 280.445 133Z" fill="#ADB010"/>
<path d="M222.852 338.235C222.852 372.032 388.023 371.514 392 313.889C345.734 314.002 83.3736 295.255 50 311.878V389L392 389C382.604 331.048 336.919 338.235 222.852 338.235Z" fill="#ADB010"/>
<rect x="588.911" y="96.6256" width="10.1833" height="29.7955" fill="#9F7535"/>
<path opacity="0.1" d="M593.06 96.6256L599.095 96.6256L599.095 126.421L593.06 126.421L593.06 96.6256Z" fill="black"/>
<path fill-rule="evenodd" clip-rule="evenodd" d="M592.872 31L612.306 60.7012L605.475 60.7012L620.12 83.0479L611.793 83.0479L624.366 101.906L561 101.906L573.573 83.0479L565.246 83.0479L579.892 60.7012L573.437 60.7012L592.872 31Z" fill="#9CC27E"/>
<path opacity="0.1" fill-rule="evenodd" clip-rule="evenodd" d="M561.002 101.903L561 101.906L561.002 101.906L561.002 101.903ZM592.683 101.906L624.366 101.906L611.793 83.0479L620.12 83.0479L605.475 60.7012L612.306 60.7012L592.872 31L592.683 31.2881L592.683 101.906Z" fill="black"/>
<rect x="440.66" y="172.226" width="7.17293" height="20.9875" fill="#9F7535"/>
<path opacity="0.1" d="M443.583 172.226L447.833 172.226L447.833 193.213L443.583 193.213L443.583 172.226Z" fill="black"/>
<path fill-rule="evenodd" clip-rule="evenodd" d="M443.45 126L457.139 146.921L452.327 146.921L462.643 162.662L456.778 162.662L465.634 175.945L421 175.945L429.856 162.662L423.991 162.662L434.307 146.921L429.76 146.921L443.45 126Z" fill="#9CC27E"/>
<path opacity="0.1" fill-rule="evenodd" clip-rule="evenodd" d="M421.001 175.943L421 175.945L421.001 175.945L421.001 175.943ZM443.317 175.945L465.634 175.945L456.778 162.662L462.643 162.662L452.327 146.921L457.139 146.921L443.45 126L443.317 126.203L443.317 175.945Z" fill="black"/>
<rect x="342.703" y="250.495" width="7.55317" height="22.926" fill="#9F7535"/>
<path opacity="0.1" d="M345.78 250.495L350.256 250.495L350.256 273.421L345.78 273.421L345.78 250.495Z" fill="black"/>
<path fill-rule="evenodd" clip-rule="evenodd" d="M345.64 200L360.055 222.853L354.988 222.853L365.851 240.048L359.675 240.048L369 254.558L322 254.558L331.325 240.048L325.15 240.048L336.012 222.853L331.225 222.853L345.64 200Z" fill="#9CC27E"/>
<path opacity="0.1" fill-rule="evenodd" clip-rule="evenodd" d="M322.001 254.556L322 254.558L322.001 254.558L322.001 254.556ZM345.5 254.558L369 254.558L359.675 240.048L365.851 240.048L354.988 222.853L360.055 222.853L345.64 200L345.5 200.222L345.5 254.558Z" fill="black"/>
<path d="M608.113 113C594.098 113 580.462 118.255 570.509 128.129C570.449 128.189 570.39 128.248 570.33 128.308L539.893 158.745C524.266 174.372 503.065 183.012 480.969 183.071C459.032 183.131 437.991 191.87 422.464 207.397L391.13 238.73C375.564 254.297 354.443 263.056 332.426 263.056H293.349C275.194 263.056 257.378 267.834 241.672 276.931L48 388.906H869.646L669.007 133.962C658.596 120.724 642.671 113 625.83 113H608.113Z" fill="#D3D265"/>
<path d="M608.113 113C594.098 113 580.462 118.255 570.509 128.129C570.449 128.189 570.39 128.248 570.33 128.308L539.893 158.745C524.266 174.372 503.065 183.012 480.969 183.071C459.032 183.131 437.991 191.87 422.464 207.397L391.13 238.73C375.564 254.297 354.443 263.056 332.426 263.056H293.349C275.194 263.056 257.378 267.834 241.672 276.931L48 388.906H869.646L669.007 133.962C658.596 120.724 642.671 113 625.83 113H608.113Z" fill="#D3D265"/>
<path d="M517.378 297.026L512.024 305.678L522.293 317.809H532.649L542.303 305.473L536.327 297.026H517.378Z" fill="#3F4553"/>
<path d="M512.024 305.678C512.024 305.678 488.992 307.449 483.215 313.45C477.437 319.45 480.155 325.966 485.783 325.966C496.142 325.966 518.06 326.596 528.431 325.966L529.05 311.917L512.024 305.678Z" fill="#3F4553"/>
<path d="M541.707 305.38C541.707 305.38 565.826 307.449 571.604 313.45C577.382 319.45 574.052 323.426 569.036 325.966C561.976 329.542 536.529 328.949 523.332 324.604L525.773 311.917L541.707 305.38Z" fill="#3F4553"/>
<path d="M542.768 317.164L541.137 312.973L543.169 312.074C543.169 312.074 542.888 309.594 545.374 309.116C547.86 308.639 550.822 310.235 553.709 308.949C556.371 307.763 559.629 306.67 562.67 308.311C563.119 308.553 563.329 309.087 563.176 309.571L563.164 309.609C563.011 310.097 562.531 310.399 562.017 310.347C560.945 310.239 559.033 310.261 557.143 311.399C553.885 313.368 542.768 317.164 542.768 317.164Z" fill="#FEBBA0"/>
<path d="M561.743 317.403C561.743 317.403 545.648 314.557 511.743 314.117L508.47 318.533C508.47 318.533 516.906 323.329 524.824 325.063C532.743 326.797 560.079 332.257 572.286 323.847L561.743 317.403Z" fill="#3F4553"/>
<path d="M524.824 325.067C516.707 323.202 508.215 318.421 508.215 318.421L508.721 317.567" stroke="#6E758F" stroke-width="1.5925" stroke-miterlimit="10" stroke-linecap="round"/>
<path d="M511.743 314.117C511.743 314.117 548.992 313.271 558.931 319.007" stroke="#6E758F" stroke-width="1.5925" stroke-miterlimit="10" stroke-linecap="round"/>
<path d="M493.458 316.519C493.458 316.519 500.259 313.349 504.908 315.426" stroke="#6E758F" stroke-width="1.5925" stroke-miterlimit="10" stroke-linecap="round"/>
<path d="M509.253 317.802L511.739 314.035L509.253 312.697C509.253 312.697 508.383 310.53 505.946 309.859C503.506 309.191 501.77 310.269 498.992 308.762C496.431 307.371 493.266 306.032 490.109 307.431C489.645 307.636 489.39 308.15 489.506 308.646L489.513 308.684C489.63 309.183 490.083 309.519 490.597 309.508C491.673 309.482 493.581 309.653 495.373 310.936C498.467 313.152 509.253 317.802 509.253 317.802Z" fill="#FEBBA0"/>
<path d="M530.654 314.252L540.837 313.256" stroke="#6E758F" stroke-width="1.5925" stroke-miterlimit="10" stroke-linecap="round"/>
<path d="M517.704 309.862L523.384 313.953" stroke="#6E758F" stroke-width="1.5925" stroke-miterlimit="10" stroke-linecap="round"/>
<path d="M516.238 254.187C516.478 256.521 518.522 258.222 520.801 257.991C523.081 257.76 524.734 255.679 524.494 253.348C524.254 251.013 522.211 249.313 519.931 249.544C517.656 249.771 516.002 251.852 516.238 254.187Z" fill="#3F4553"/>
<path d="M524.753 255.884C524.753 255.884 517.509 254.795 516.37 247.996C515.365 241.988 519.418 237.174 523.861 236.342C523.864 236.342 534.539 252.706 524.753 255.884Z" fill="#3F4553"/>
<path d="M524.918 236.987C524.385 237.248 523.879 237.591 523.418 238.035C519.29 241.984 521.903 249.652 525.6 253.113C527.647 255.026 530.639 255.917 533.253 254.94C537.073 253.512 538.269 249.208 537.493 245.374C536.916 242.518 535.322 239.821 532.971 238.143C530.621 236.469 527.445 235.76 524.918 236.987Z" fill="#FDBCA0"/>
<path d="M524.232 250.801C523.508 251.513 522.248 251.804 521.281 251.464C520.314 251.125 519.519 250.219 519.268 249.167C519.043 248.224 519.286 247.149 519.984 246.571C520.681 245.993 521.937 246.031 522.533 246.78L524.232 250.801Z" fill="#FDBCA0"/>
<path d="M523.174 248.294L523.936 261.847C524.037 264.353 526.08 266.344 528.6 266.393C531.509 266.453 533.792 263.924 533.421 261.053L531.884 248.47L523.174 248.294Z" fill="#FDBCA0"/>
<path d="M532.919 256.965L532.728 255.108C532.728 255.108 528.978 256.253 525.6 253.109C525.6 253.113 527.546 256.644 532.919 256.965Z" fill="#DF8370"/>
<path d="M521.686 246.247C526.568 245.997 531.022 242.738 533.481 238.538C533.481 238.538 528.99 234.298 522.425 236.778C516.984 238.829 521.686 246.247 521.686 246.247Z" fill="#3F4553"/>
<path d="M522.222 249.365C521.66 249.421 521.169 249.119 521.124 248.69C521.09 248.365 521.319 248.063 521.671 247.907" stroke="#444359" stroke-width="1.1144" stroke-miterlimit="10" stroke-linecap="round"/>
<path d="M533.95 248.306C534.062 247.966 534.257 247.698 534.475 247.444L534.58 247.772C534.332 247.679 534.197 247.537 534.059 247.399C533.927 247.254 533.811 247.109 533.706 246.952C533.496 246.642 533.32 246.314 533.193 245.967C533.455 246.232 533.695 246.504 533.946 246.765C534.074 246.892 534.194 247.023 534.325 247.135C534.449 247.243 534.595 247.355 534.696 247.381L535 247.452L534.801 247.709C534.599 247.974 534.374 248.22 534.062 248.399C534.025 248.421 533.98 248.406 533.957 248.373C533.946 248.347 533.946 248.324 533.95 248.306Z" fill="#444359"/>
<path d="M535.048 249.492C534.899 249.797 534.644 250.062 534.314 250.222C533.987 250.39 533.583 250.424 533.223 250.319C532.855 250.219 532.57 249.98 532.327 249.734C532.218 249.6 532.109 249.462 532.019 249.32C531.94 249.167 531.858 249.018 531.798 248.861C531.937 248.966 532.057 249.078 532.177 249.189L532.548 249.495C532.81 249.667 533.058 249.853 533.343 249.92C533.616 250.006 533.909 250.002 534.197 249.924C534.482 249.842 534.767 249.682 535.048 249.492Z" fill="#444359"/>
<path d="M531.123 244.617C531.269 245.05 531.352 245.497 531.322 245.979C531.303 246.213 531.247 246.471 531.07 246.698C530.891 246.93 530.587 247.03 530.321 247.023C530.047 247.019 529.777 246.9 529.593 246.732C529.402 246.564 529.252 246.37 529.14 246.165C528.915 245.751 528.772 245.318 528.701 244.863C528.69 244.793 528.738 244.725 528.81 244.711C528.877 244.699 528.937 244.74 528.956 244.8L528.96 244.808C529.087 245.21 529.256 245.617 529.473 245.967C529.691 246.307 529.987 246.62 530.336 246.609C530.508 246.616 530.669 246.571 530.767 246.448C530.876 246.329 530.928 246.135 530.958 245.937C531.014 245.538 530.977 245.098 530.909 244.677V244.67C530.898 244.61 530.943 244.55 531.003 244.543C531.052 244.535 531.104 244.569 531.123 244.617Z" fill="#444359"/>
<path d="M536.567 243.771C536.691 244.136 536.758 244.509 536.751 244.908C536.747 245.106 536.709 245.322 536.582 245.527C536.458 245.744 536.181 245.878 535.941 245.867C535.69 245.863 535.461 245.732 535.315 245.579C535.165 245.423 535.048 245.255 534.962 245.076C534.794 244.718 534.689 244.353 534.636 243.968C534.625 243.898 534.677 243.83 534.752 243.819C534.816 243.812 534.876 243.849 534.895 243.909L534.899 243.916C535.007 244.252 535.138 244.595 535.307 244.893C535.476 245.184 535.705 245.464 535.956 245.449C536.083 245.453 536.185 245.415 536.252 245.311C536.327 245.207 536.364 245.046 536.387 244.878C536.424 244.543 536.394 244.174 536.353 243.823V243.816C536.346 243.756 536.391 243.7 536.451 243.689C536.499 243.689 536.552 243.722 536.567 243.771Z" fill="#444359"/>
<path d="M540.616 263.078C540.582 260.803 533.166 258.983 533.166 258.983C532.701 259.494 531.903 260.355 528.54 260.355C525.323 260.355 524.037 259.527 523.534 258.983H520.351C519.643 258.983 518.994 259.386 518.698 260.027C512.32 273.904 515.905 289.403 517.374 297.022C517.509 297.723 530.819 297.25 536.822 297.723C538.119 297.831 540.744 271.346 540.616 263.078Z" fill="#FEE6C6"/>
<path d="M525.128 282.701C525.788 277.398 526.594 274.217 527.212 275.261C527.76 276.186 527.456 280.825 526.635 285.301C526.639 285.301 524.847 284.973 525.128 282.701Z" fill="#FEBBA0"/>
<path d="M529.484 282.701C528.825 277.398 528.018 274.217 527.4 275.261C526.852 276.186 527.156 280.825 527.977 285.301C527.973 285.301 529.766 284.973 529.484 282.701Z" fill="#FEBBA0"/>
<path d="M551.463 281.385H543.083L544.414 289.851L529.207 282.47C529.155 281.903 529.083 281.202 528.997 280.46C528.423 280.46 527.846 280.46 527.272 280.453C527.276 281.098 527.287 281.534 527.287 281.534C527.287 281.534 526.991 285.428 527.67 286.725C528.96 289.194 542.153 297.145 545.816 298.089C546.045 298.148 546.274 298.193 546.503 298.223C550.038 298.719 552.381 296.746 552.355 293.196L551.463 281.385Z" fill="#FEBBA0"/>
<path d="M525.465 280.423C525.334 281.258 525.218 282.064 525.128 282.701L510.359 289.504L510.982 281.389H502.602L501.713 293.207C501.691 296.757 504.034 298.726 507.566 298.234C507.795 298.201 508.024 298.156 508.252 298.1C511.915 297.156 524.187 290.559 526.807 286.71C527.584 285.573 527.216 281.743 527.216 281.743C527.216 281.743 527.216 281.213 527.201 280.46C526.624 280.449 526.046 280.438 525.465 280.423Z" fill="#FEBBA0"/>
<path d="M513.126 286.018C516.403 276.378 516.377 276.37 520.4 258.988C517.708 259.171 517.431 258.734 515.308 259.831C508.942 263.12 502.947 273.924 501.181 286.018H513.126Z" fill="#FEE6C6"/>
<path d="M542.303 285.066C540.376 278.237 533.166 258.987 533.166 258.987C540.376 258.744 550.214 268.094 552.569 283.817L542.303 285.066Z" fill="#FEE6C6"/>
<path d="M540.62 269.988L539.101 282.399" stroke="#EED2AD" stroke-width="1.5925" stroke-miterlimit="10" stroke-linecap="round"/>
<path d="M514.506 272.024L515.713 285.301" stroke="#EED2AD" stroke-width="1.5925" stroke-miterlimit="10" stroke-linecap="round"/>
</svg>
