<svg width="420" height="632" viewBox="0 0 420 632" fill="none" xmlns="http://www.w3.org/2000/svg">
<path d="M292.875 0.894348C278.508 0.894348 264.528 6.28215 254.324 16.4047C254.263 16.4659 254.202 16.5271 254.14 16.5884L222.936 47.7927C206.915 63.8133 185.181 72.6705 162.527 72.7317C140.037 72.7929 118.466 81.7522 102.547 97.6707L70.4245 129.793C54.4651 145.753 32.8119 154.732 10.2403 154.732H-29.8213C-48.4337 154.732 -66.6991 159.63 -82.8013 168.957L-281.354 283.754H561L355.304 22.3843C344.631 8.81278 328.304 0.894348 311.039 0.894348H292.875Z" fill="#D3D265"/>
<rect x="277.382" y="188.507" width="10.252" height="30.7561" fill="#9F7535"/>
<path opacity="0.1" d="M281.558 188.507H287.634V219.263H281.558V188.507Z" fill="black"/>
<path fill-rule="evenodd" clip-rule="evenodd" d="M295.6 132.394C295.6 135.548 294.439 138.431 292.521 140.638C296.05 143.475 298.309 147.828 298.309 152.708C298.309 154.518 297.998 156.255 297.427 157.869C302.686 162.126 306.048 168.633 306.048 175.925C306.048 188.747 295.653 199.142 282.831 199.142C270.009 199.142 259.614 188.747 259.614 175.925C259.614 168.633 262.976 162.126 268.235 157.87C267.664 156.255 267.353 154.518 267.353 152.708C267.353 147.722 269.711 143.286 273.373 140.456C271.547 138.273 270.449 135.462 270.449 132.394C270.449 125.448 276.079 119.818 283.024 119.818C289.97 119.818 295.6 125.448 295.6 132.394Z" fill="#9CC27E"/>
<path d="M425.511 660.332L425.511 268.649C425.511 268.649 392.463 198.183 307.498 206.36C222.532 214.537 204.911 258.579 102.323 177.411C102.323 177.411 66.133 143.44 0.0516962 144.688L0.0516962 660.332L425.511 660.332Z" fill="#39AE76"/>
<path d="M212.156 197.76L206.667 206.63L217.196 219.067H227.812L237.71 206.42L231.583 197.76H212.156Z" fill="#3F4553"/>
<path d="M206.667 206.63C206.667 206.63 183.055 208.446 177.132 214.598C171.208 220.75 173.995 227.429 179.765 227.429C190.385 227.429 212.856 228.075 223.488 227.429L224.122 213.026L206.667 206.63Z" fill="#3F4553"/>
<path d="M237.099 206.324C237.099 206.324 261.826 208.446 267.749 214.598C273.672 220.75 270.259 224.825 265.116 227.429C257.878 231.096 231.79 230.488 218.26 226.033L220.763 213.026L237.099 206.324Z" fill="#3F4553"/>
<path d="M238.186 218.406L236.514 214.108L238.598 213.187C238.598 213.187 238.309 210.644 240.858 210.155C243.406 209.666 246.443 211.302 249.403 209.983C252.132 208.767 255.472 207.647 258.589 209.329C259.05 209.578 259.266 210.124 259.108 210.622L259.097 210.66C258.939 211.161 258.447 211.47 257.92 211.417C256.821 211.306 254.861 211.329 252.924 212.495C249.583 214.514 238.186 218.406 238.186 218.406Z" fill="#FEBBA0"/>
<path d="M257.64 218.651C257.64 218.651 241.138 215.733 206.379 215.282L203.023 219.809C203.023 219.809 211.672 224.726 219.79 226.504C227.908 228.282 255.933 233.879 268.448 225.257L257.64 218.651Z" fill="#3F4553"/>
<path d="M219.79 226.507C211.468 224.596 202.762 219.694 202.762 219.694L203.281 218.819" stroke="#6E758F" stroke-width="1.5925" stroke-miterlimit="10" stroke-linecap="round"/>
<path d="M206.379 215.282C206.379 215.282 244.567 214.414 254.757 220.295" stroke="#6E758F" stroke-width="1.5925" stroke-miterlimit="10" stroke-linecap="round"/>
<path d="M187.633 217.744C187.633 217.744 194.606 214.495 199.372 216.624" stroke="#6E758F" stroke-width="1.5925" stroke-miterlimit="10" stroke-linecap="round"/>
<path d="M203.827 219.06L206.375 215.198L203.827 213.825C203.827 213.825 202.935 211.604 200.436 210.916C197.934 210.231 196.154 211.336 193.306 209.792C190.681 208.366 187.437 206.993 184.2 208.427C183.724 208.637 183.462 209.165 183.581 209.673L183.589 209.712C183.708 210.224 184.173 210.568 184.7 210.556C185.803 210.53 187.76 210.706 189.597 212.021C192.768 214.292 203.827 219.06 203.827 219.06Z" fill="#FEBBA0"/>
<path d="M225.767 215.42L236.207 214.399" stroke="#6E758F" stroke-width="1.5925" stroke-miterlimit="10" stroke-linecap="round"/>
<path d="M212.491 210.92L218.314 215.114" stroke="#6E758F" stroke-width="1.5925" stroke-miterlimit="10" stroke-linecap="round"/>
<path d="M210.988 153.841C211.234 156.235 213.329 157.978 215.666 157.741C218.003 157.504 219.698 155.371 219.452 152.981C219.206 150.588 217.111 148.844 214.774 149.081C212.441 149.314 210.746 151.448 210.988 153.841Z" fill="#3F4553"/>
<path d="M219.717 155.58C219.717 155.58 212.291 154.464 211.122 147.494C210.092 141.334 214.247 136.398 218.802 135.546C218.806 135.546 229.749 152.322 219.717 155.58Z" fill="#3F4553"/>
<path d="M219.886 136.208C219.34 136.476 218.822 136.827 218.349 137.282C214.117 141.331 216.796 149.192 220.586 152.74C222.685 154.701 225.752 155.615 228.431 154.614C232.348 153.149 233.574 148.737 232.778 144.807C232.186 141.878 230.553 139.114 228.143 137.393C225.733 135.677 222.477 134.95 219.886 136.208Z" fill="#FDBCA0"/>
<path d="M219.183 150.37C218.441 151.1 217.15 151.398 216.158 151.05C215.166 150.702 214.351 149.773 214.094 148.695C213.863 147.728 214.113 146.626 214.828 146.034C215.543 145.441 216.831 145.479 217.442 146.248L219.183 150.37Z" fill="#FDBCA0"/>
<path d="M218.099 147.8L218.879 161.694C218.983 164.264 221.078 166.305 223.661 166.355C226.644 166.416 228.985 163.824 228.604 160.88L227.028 147.98L218.099 147.8Z" fill="#FDBCA0"/>
<path d="M228.089 156.69L227.893 154.785C227.893 154.785 224.049 155.959 220.586 152.736C220.586 152.74 222.581 156.361 228.089 156.69Z" fill="#DF8370"/>
<path d="M216.573 145.701C221.578 145.445 226.144 142.103 228.666 137.798C228.666 137.798 224.061 133.451 217.33 135.994C211.753 138.097 216.573 145.701 216.573 145.701Z" fill="#3F4553"/>
<path d="M217.123 148.898C216.546 148.955 216.043 148.645 215.997 148.205C215.962 147.873 216.196 147.563 216.558 147.403" stroke="#444359" stroke-width="1.1144" stroke-miterlimit="10" stroke-linecap="round"/>
<path d="M229.146 147.812C229.261 147.464 229.461 147.189 229.684 146.929L229.792 147.265C229.538 147.169 229.4 147.024 229.257 146.883C229.123 146.734 229.004 146.584 228.896 146.424C228.681 146.107 228.5 145.77 228.369 145.415C228.638 145.686 228.884 145.965 229.142 146.233C229.273 146.363 229.396 146.497 229.53 146.611C229.657 146.722 229.807 146.837 229.911 146.864L230.222 146.936L230.018 147.2C229.811 147.471 229.58 147.724 229.261 147.907C229.223 147.93 229.177 147.915 229.154 147.881C229.142 147.854 229.142 147.831 229.146 147.812Z" fill="#444359"/>
<path d="M230.272 149.028C230.119 149.341 229.857 149.612 229.519 149.777C229.184 149.949 228.769 149.983 228.4 149.876C228.024 149.773 227.732 149.528 227.482 149.276C227.37 149.138 227.259 148.997 227.166 148.852C227.086 148.695 227.001 148.542 226.94 148.381C227.082 148.488 227.205 148.603 227.328 148.718L227.708 149.031C227.978 149.207 228.231 149.398 228.523 149.467C228.804 149.555 229.104 149.551 229.4 149.471C229.692 149.387 229.984 149.223 230.272 149.028Z" fill="#444359"/>
<path d="M226.248 144.03C226.398 144.474 226.482 144.933 226.451 145.426C226.432 145.667 226.375 145.931 226.194 146.164C226.009 146.401 225.698 146.504 225.425 146.497C225.145 146.493 224.868 146.37 224.679 146.198C224.483 146.026 224.33 145.827 224.214 145.617C223.984 145.193 223.838 144.749 223.765 144.283C223.753 144.21 223.803 144.141 223.876 144.126C223.945 144.115 224.007 144.157 224.026 144.218L224.03 144.225C224.161 144.638 224.333 145.055 224.556 145.415C224.779 145.762 225.083 146.084 225.44 146.072C225.617 146.08 225.783 146.034 225.883 145.908C225.994 145.785 226.048 145.587 226.079 145.384C226.136 144.975 226.098 144.524 226.029 144.092V144.084C226.017 144.023 226.063 143.962 226.125 143.954C226.175 143.946 226.228 143.981 226.248 144.03Z" fill="#444359"/>
<path d="M231.829 143.163C231.956 143.537 232.025 143.92 232.017 144.329C232.014 144.531 231.975 144.753 231.844 144.963C231.718 145.185 231.433 145.323 231.187 145.311C230.93 145.307 230.695 145.174 230.545 145.017C230.391 144.856 230.272 144.684 230.184 144.501C230.011 144.134 229.903 143.759 229.849 143.365C229.838 143.293 229.892 143.224 229.969 143.212C230.034 143.205 230.095 143.243 230.115 143.304L230.119 143.312C230.23 143.656 230.365 144.008 230.537 144.313C230.71 144.612 230.945 144.898 231.202 144.883C231.333 144.887 231.437 144.849 231.506 144.742C231.583 144.635 231.621 144.47 231.645 144.298C231.683 143.954 231.652 143.575 231.61 143.216V143.208C231.602 143.147 231.648 143.09 231.71 143.078C231.76 143.078 231.814 143.113 231.829 143.163Z" fill="#444359"/>
<path d="M235.98 162.956C235.946 160.624 228.343 158.758 228.343 158.758C227.866 159.282 227.047 160.165 223.599 160.165C220.302 160.165 218.983 159.316 218.468 158.758H215.205C214.478 158.758 213.813 159.171 213.51 159.828C206.971 174.055 210.646 189.945 212.153 197.756C212.291 198.475 225.936 197.989 232.09 198.475C233.42 198.586 236.111 171.432 235.98 162.956Z" fill="#FEE6C6"/>
<path d="M220.101 183.074C220.778 177.638 221.604 174.376 222.239 175.447C222.8 176.395 222.488 181.151 221.647 185.739C221.651 185.739 219.813 185.403 220.101 183.074Z" fill="#FEBBA0"/>
<path d="M224.568 183.074C223.892 177.638 223.065 174.376 222.431 175.447C221.87 176.395 222.181 181.151 223.023 185.739C223.019 185.739 224.856 185.403 224.568 183.074Z" fill="#FEBBA0"/>
<path d="M247.1 181.725H238.51L239.874 190.404L224.284 182.837C224.23 182.256 224.157 181.537 224.068 180.777C223.48 180.777 222.888 180.777 222.3 180.769C222.304 181.43 222.316 181.878 222.316 181.878C222.316 181.878 222.012 185.869 222.708 187.2C224.03 189.731 237.556 197.882 241.312 198.849C241.546 198.911 241.781 198.956 242.015 198.987C245.64 199.496 248.042 197.473 248.015 193.833L247.1 181.725Z" fill="#FEBBA0"/>
<path d="M220.447 180.738C220.313 181.595 220.194 182.421 220.102 183.074L204.961 190.048L205.599 181.729H197.008L196.097 193.845C196.074 197.484 198.476 199.503 202.097 198.999C202.332 198.964 202.566 198.918 202.801 198.861C206.556 197.894 219.137 191.13 221.824 187.184C222.619 186.018 222.243 182.092 222.243 182.092C222.243 182.092 222.242 181.549 222.227 180.777C221.635 180.765 221.043 180.754 220.447 180.738Z" fill="#FEBBA0"/>
<path d="M207.798 186.474C211.157 176.591 211.13 176.584 215.254 158.763C212.495 158.95 212.21 158.503 210.035 159.627C203.508 162.999 197.362 174.075 195.551 186.474H207.798Z" fill="#FEE6C6"/>
<path d="M237.71 185.498C235.734 178.498 228.343 158.762 228.343 158.762C235.734 158.513 245.82 168.098 248.234 184.218L237.71 185.498Z" fill="#FEE6C6"/>
<path d="M235.984 170.041L234.427 182.765" stroke="#EED2AD" stroke-width="1.5925" stroke-miterlimit="10" stroke-linecap="round"/>
<path d="M209.212 172.128L210.45 185.739" stroke="#EED2AD" stroke-width="1.5925" stroke-miterlimit="10" stroke-linecap="round"/>
</svg>
