<svg width="420" height="645" viewBox="0 0 420 645" fill="none" xmlns="http://www.w3.org/2000/svg">
<path d="M287.113 0C273.098 0 259.462 5.25535 249.509 15.129C249.449 15.1888 249.39 15.2485 249.33 15.3082L218.893 45.7454C203.266 61.3721 182.065 70.0116 159.969 70.0713C138.032 70.1311 116.991 78.8701 101.464 94.3972L70.1305 125.73C54.5635 141.297 33.4426 150.056 11.4259 150.056V163.931C-6.72897 163.931 27.1322 193.903 11.4259 203L6.50001 260L417 273L419.5 139.5V110.5L348.007 20.9617C337.596 7.72377 321.671 0 304.83 0H287.113Z" fill="#D3D265"/>
<rect x="272" y="183" width="10" height="30" fill="#9F7535"/>
<path opacity="0.1" d="M276.074 183H282V213H276.074V183Z" fill="black"/>
<path fill-rule="evenodd" clip-rule="evenodd" d="M289.77 128.267C289.77 131.343 288.638 134.155 286.767 136.308C290.209 139.075 292.413 143.321 292.413 148.082C292.413 149.847 292.11 151.542 291.553 153.116C296.682 157.268 299.961 163.615 299.961 170.728C299.961 183.235 289.822 193.374 277.315 193.374C264.808 193.374 254.669 183.235 254.669 170.728C254.669 163.615 257.949 157.268 263.078 153.116C262.521 151.542 262.218 149.847 262.218 148.082C262.218 143.218 264.518 138.892 268.089 136.13C266.309 134.001 265.237 131.259 265.237 128.267C265.237 121.492 270.729 116 277.504 116C284.279 116 289.77 121.492 289.77 128.267Z" fill="#9CC27E"/>
<path d="M415.727 644.457L417.992 262.41C417.992 262.41 386.108 193.485 303.039 200.969C219.97 208.453 202.497 251.309 102.726 171.543C102.726 171.543 67.5596 138.198 2.98268 139.033L-3.82931e-05 641.991L415.727 644.457Z" fill="#39AE76"/>
<path d="M208.378 192.026L203.024 200.678L213.293 212.809H223.649L233.303 200.473L227.327 192.026H208.378Z" fill="#3F4553"/>
<path d="M203.024 200.678C203.024 200.678 179.992 202.449 174.215 208.45C168.437 214.45 171.155 220.966 176.783 220.966C187.142 220.966 209.06 221.596 219.431 220.966L220.05 206.917L203.024 200.678Z" fill="#3F4553"/>
<path d="M232.707 200.38C232.707 200.38 256.826 202.449 262.604 208.45C268.382 214.45 265.052 218.426 260.036 220.966C252.976 224.542 227.529 223.949 214.332 219.604L216.773 206.917L232.707 200.38Z" fill="#3F4553"/>
<path d="M233.768 212.164L232.137 207.973L234.169 207.074C234.169 207.074 233.888 204.594 236.374 204.116C238.86 203.639 241.822 205.235 244.709 203.949C247.371 202.763 250.629 201.67 253.67 203.311C254.119 203.553 254.329 204.087 254.176 204.571L254.164 204.609C254.011 205.097 253.531 205.399 253.017 205.347C251.945 205.239 250.033 205.261 248.143 206.399C244.885 208.368 233.768 212.164 233.768 212.164Z" fill="#FEBBA0"/>
<path d="M252.743 212.403C252.743 212.403 236.648 209.557 202.743 209.117L199.47 213.533C199.47 213.533 207.906 218.329 215.824 220.063C223.743 221.797 251.079 227.257 263.286 218.847L252.743 212.403Z" fill="#3F4553"/>
<path d="M215.824 220.067C207.707 218.202 199.215 213.421 199.215 213.421L199.721 212.567" stroke="#6E758F" stroke-width="1.5925" stroke-miterlimit="10" stroke-linecap="round"/>
<path d="M202.743 209.117C202.743 209.117 239.992 208.271 249.931 214.007" stroke="#6E758F" stroke-width="1.5925" stroke-miterlimit="10" stroke-linecap="round"/>
<path d="M184.458 211.519C184.458 211.519 191.259 208.349 195.908 210.426" stroke="#6E758F" stroke-width="1.5925" stroke-miterlimit="10" stroke-linecap="round"/>
<path d="M200.253 212.802L202.739 209.035L200.253 207.697C200.253 207.697 199.383 205.53 196.946 204.859C194.506 204.191 192.77 205.269 189.992 203.762C187.431 202.371 184.266 201.032 181.109 202.431C180.645 202.636 180.39 203.15 180.506 203.646L180.513 203.684C180.63 204.183 181.083 204.519 181.597 204.508C182.673 204.482 184.581 204.653 186.373 205.936C189.467 208.152 200.253 212.802 200.253 212.802Z" fill="#FEBBA0"/>
<path d="M221.654 209.252L231.837 208.256" stroke="#6E758F" stroke-width="1.5925" stroke-miterlimit="10" stroke-linecap="round"/>
<path d="M208.704 204.862L214.384 208.953" stroke="#6E758F" stroke-width="1.5925" stroke-miterlimit="10" stroke-linecap="round"/>
<path d="M207.238 149.187C207.478 151.521 209.522 153.222 211.801 152.991C214.081 152.76 215.734 150.679 215.494 148.348C215.254 146.013 213.211 144.313 210.931 144.544C208.656 144.771 207.002 146.852 207.238 149.187Z" fill="#3F4553"/>
<path d="M215.753 150.884C215.753 150.884 208.509 149.795 207.37 142.996C206.365 136.988 210.418 132.174 214.861 131.342C214.864 131.342 225.539 147.706 215.753 150.884Z" fill="#3F4553"/>
<path d="M215.918 131.987C215.386 132.248 214.879 132.591 214.418 133.035C210.29 136.984 212.904 144.652 216.6 148.113C218.647 150.026 221.639 150.917 224.253 149.94C228.073 148.512 229.269 144.208 228.493 140.374C227.916 137.518 226.322 134.821 223.971 133.143C221.621 131.469 218.445 130.76 215.918 131.987Z" fill="#FDBCA0"/>
<path d="M215.232 145.801C214.508 146.513 213.248 146.804 212.281 146.464C211.314 146.125 210.519 145.219 210.268 144.167C210.043 143.224 210.286 142.149 210.984 141.571C211.681 140.993 212.937 141.031 213.533 141.78L215.232 145.801Z" fill="#FDBCA0"/>
<path d="M214.174 143.294L214.936 156.847C215.037 159.353 217.08 161.344 219.6 161.393C222.509 161.453 224.792 158.924 224.421 156.053L222.884 143.47L214.174 143.294Z" fill="#FDBCA0"/>
<path d="M223.919 151.965L223.728 150.108C223.728 150.108 219.978 151.253 216.6 148.109C216.6 148.113 218.546 151.644 223.919 151.965Z" fill="#DF8370"/>
<path d="M212.686 141.247C217.568 140.997 222.022 137.738 224.481 133.538C224.481 133.538 219.99 129.298 213.425 131.778C207.984 133.829 212.686 141.247 212.686 141.247Z" fill="#3F4553"/>
<path d="M213.222 144.365C212.66 144.421 212.169 144.119 212.124 143.69C212.09 143.365 212.319 143.063 212.671 142.907" stroke="#444359" stroke-width="1.1144" stroke-miterlimit="10" stroke-linecap="round"/>
<path d="M224.95 143.306C225.062 142.966 225.257 142.698 225.475 142.444L225.58 142.772C225.332 142.679 225.197 142.537 225.059 142.399C224.927 142.254 224.811 142.109 224.706 141.952C224.496 141.642 224.32 141.314 224.193 140.967C224.455 141.232 224.695 141.504 224.946 141.765C225.074 141.892 225.194 142.023 225.325 142.135C225.449 142.243 225.595 142.355 225.696 142.381L226 142.452L225.801 142.709C225.599 142.974 225.374 143.22 225.062 143.399C225.025 143.421 224.98 143.406 224.957 143.373C224.946 143.347 224.946 143.324 224.95 143.306Z" fill="#444359"/>
<path d="M226.049 144.492C225.899 144.797 225.644 145.062 225.314 145.222C224.987 145.39 224.583 145.424 224.223 145.319C223.855 145.219 223.57 144.98 223.327 144.734C223.218 144.6 223.109 144.462 223.019 144.32C222.94 144.167 222.858 144.018 222.798 143.861C222.937 143.966 223.057 144.078 223.177 144.189L223.548 144.495C223.81 144.667 224.058 144.853 224.343 144.92C224.616 145.006 224.909 145.002 225.197 144.924C225.482 144.842 225.767 144.682 226.049 144.492Z" fill="#444359"/>
<path d="M222.123 139.617C222.269 140.05 222.352 140.497 222.322 140.979C222.303 141.213 222.247 141.471 222.071 141.698C221.891 141.93 221.587 142.03 221.321 142.023C221.047 142.019 220.777 141.9 220.593 141.732C220.402 141.564 220.252 141.37 220.14 141.165C219.915 140.751 219.772 140.318 219.701 139.863C219.69 139.793 219.738 139.725 219.81 139.711C219.877 139.699 219.937 139.74 219.956 139.8L219.96 139.808C220.087 140.21 220.256 140.617 220.473 140.967C220.691 141.307 220.987 141.62 221.336 141.609C221.508 141.616 221.669 141.571 221.767 141.448C221.876 141.329 221.928 141.135 221.958 140.937C222.014 140.538 221.977 140.098 221.909 139.677V139.67C221.898 139.61 221.943 139.55 222.003 139.543C222.052 139.535 222.104 139.569 222.123 139.617Z" fill="#444359"/>
<path d="M227.567 138.771C227.691 139.136 227.758 139.509 227.751 139.908C227.747 140.106 227.709 140.322 227.582 140.527C227.458 140.744 227.181 140.878 226.941 140.867C226.69 140.863 226.461 140.732 226.315 140.579C226.165 140.423 226.049 140.255 225.962 140.076C225.794 139.718 225.689 139.353 225.636 138.968C225.625 138.898 225.677 138.83 225.752 138.819C225.816 138.812 225.876 138.849 225.895 138.909L225.899 138.916C226.007 139.252 226.139 139.595 226.307 139.893C226.476 140.184 226.705 140.464 226.956 140.449C227.083 140.453 227.185 140.415 227.252 140.311C227.327 140.207 227.365 140.046 227.387 139.878C227.425 139.543 227.395 139.174 227.353 138.823V138.816C227.346 138.756 227.391 138.7 227.451 138.689C227.5 138.689 227.552 138.722 227.567 138.771Z" fill="#444359"/>
<path d="M231.616 158.078C231.582 155.803 224.166 153.983 224.166 153.983C223.701 154.494 222.903 155.355 219.54 155.355C216.323 155.355 215.037 154.527 214.534 153.983H211.351C210.643 153.983 209.994 154.386 209.698 155.027C203.32 168.904 206.905 184.403 208.374 192.022C208.509 192.723 221.819 192.25 227.822 192.723C229.119 192.831 231.744 166.346 231.616 158.078Z" fill="#FEE6C6"/>
<path d="M216.128 177.701C216.788 172.398 217.594 169.217 218.212 170.261C218.76 171.186 218.456 175.825 217.635 180.301C217.639 180.301 215.847 179.973 216.128 177.701Z" fill="#FEBBA0"/>
<path d="M220.484 177.701C219.825 172.398 219.018 169.217 218.4 170.261C217.852 171.186 218.156 175.825 218.977 180.301C218.973 180.301 220.766 179.973 220.484 177.701Z" fill="#FEBBA0"/>
<path d="M242.463 176.385H234.083L235.414 184.851L220.207 177.47C220.155 176.903 220.083 176.202 219.997 175.46C219.423 175.46 218.846 175.46 218.272 175.453C218.276 176.098 218.287 176.534 218.287 176.534C218.287 176.534 217.991 180.428 218.67 181.725C219.96 184.194 233.153 192.145 236.816 193.089C237.045 193.148 237.274 193.193 237.503 193.223C241.038 193.719 243.381 191.746 243.355 188.196L242.463 176.385Z" fill="#FEBBA0"/>
<path d="M216.465 175.423C216.334 176.258 216.218 177.064 216.128 177.701L201.359 184.504L201.982 176.389H193.602L192.713 188.207C192.691 191.757 195.034 193.726 198.566 193.234C198.795 193.201 199.024 193.156 199.252 193.1C202.915 192.156 215.187 185.559 217.807 181.71C218.584 180.573 218.216 176.743 218.216 176.743C218.216 176.743 218.216 176.213 218.201 175.46C217.624 175.449 217.046 175.438 216.465 175.423Z" fill="#FEBBA0"/>
<path d="M204.126 181.018C207.403 171.378 207.377 171.37 211.4 153.988C208.708 154.171 208.431 153.734 206.308 154.831C199.942 158.12 193.947 168.924 192.181 181.018H204.126Z" fill="#FEE6C6"/>
<path d="M233.303 180.066C231.376 173.237 224.166 153.987 224.166 153.987C231.376 153.744 241.214 163.094 243.569 178.817L233.303 180.066Z" fill="#FEE6C6"/>
<path d="M231.62 164.988L230.101 177.399" stroke="#EED2AD" stroke-width="1.5925" stroke-miterlimit="10" stroke-linecap="round"/>
<path d="M205.506 167.024L206.713 180.301" stroke="#EED2AD" stroke-width="1.5925" stroke-miterlimit="10" stroke-linecap="round"/>
</svg>
