<svg width="193" height="189" viewBox="0 0 193 189" fill="none" xmlns="http://www.w3.org/2000/svg">
<path d="M76.1887 124.391L65.2756 142.026L86.2078 166.754H107.316L126.995 141.608L114.813 124.391H76.1887Z" fill="#3F4553"/>
<path d="M65.2756 142.026C65.2756 142.026 18.3291 145.637 6.55233 157.868C-5.22442 170.099 0.316232 183.379 11.7873 183.379C32.9029 183.379 77.5796 184.664 98.7182 183.379L99.9792 154.744L65.2756 142.026Z" fill="#3F4553"/>
<path d="M125.779 141.418C125.779 141.418 174.942 145.637 186.719 157.868C198.496 170.099 191.709 178.202 181.484 183.379C167.094 190.669 115.226 189.46 88.3247 180.605L93.2998 154.744L125.779 141.418Z" fill="#3F4553"/>
<path d="M127.942 165.439L124.618 156.895L128.76 155.063C128.76 155.063 128.187 150.008 133.254 149.035C138.32 148.062 144.358 151.316 150.242 148.693C155.668 146.276 162.31 144.048 168.507 147.393C169.425 147.887 169.852 148.974 169.539 149.962L169.516 150.038C169.203 151.034 168.225 151.65 167.178 151.544C164.992 151.323 161.094 151.369 157.243 153.687C150.602 157.701 127.942 165.439 127.942 165.439Z" fill="#FEBBA0"/>
<path d="M166.62 165.926C166.62 165.926 133.812 160.126 64.7024 159.229L58.0307 168.229C58.0307 168.229 75.2258 178.005 91.3663 181.54C107.507 185.074 163.227 196.203 188.11 179.061L166.62 165.926Z" fill="#3F4553"/>
<path d="M91.3663 181.547C74.8207 177.746 57.511 168.001 57.511 168.001L58.5427 166.26" stroke="#6E758F" stroke-width="1.5925" stroke-miterlimit="10" stroke-linecap="round"/>
<path d="M64.7024 159.229C64.7024 159.229 140.628 157.503 160.888 169.195" stroke="#6E758F" stroke-width="1.5925" stroke-miterlimit="10" stroke-linecap="round"/>
<path d="M27.431 164.124C27.431 164.124 41.2941 157.663 50.7705 161.897" stroke="#6E758F" stroke-width="1.5925" stroke-miterlimit="10" stroke-linecap="round"/>
<path d="M59.6279 166.739L64.6948 159.062L59.6279 156.333C59.6279 156.333 57.8549 151.916 52.8874 150.548C47.9123 149.187 44.3739 151.384 38.711 148.313C33.4913 145.477 27.0413 142.749 20.6065 145.599C19.6588 146.017 19.1391 147.066 19.3761 148.077L19.3913 148.153C19.6283 149.172 20.553 149.856 21.6 149.833C23.7933 149.78 27.6832 150.13 31.3362 152.745C37.6411 157.26 59.6279 166.739 59.6279 166.739Z" fill="#FEBBA0"/>
<path d="M103.25 159.502L124.006 157.473" stroke="#6E758F" stroke-width="1.5925" stroke-miterlimit="10" stroke-linecap="round"/>
<path d="M76.8536 150.555L88.4317 158.894" stroke="#6E758F" stroke-width="1.5925" stroke-miterlimit="10" stroke-linecap="round"/>
<path d="M73.8656 37.0707C74.3547 41.8293 78.5197 45.2957 83.1662 44.8244C87.8127 44.3531 91.183 40.1114 90.6938 35.3603C90.2047 30.6017 86.0397 27.1354 81.3932 27.6067C76.7543 28.0704 73.3841 32.3121 73.8656 37.0707Z" fill="#3F4553"/>
<path d="M91.2211 40.5295C91.2211 40.5295 76.4563 38.3098 74.133 24.452C72.0849 12.2058 80.3462 2.39209 89.4023 0.69693C89.4099 0.69693 111.167 34.0529 91.2211 40.5295Z" fill="#3F4553"/>
<path d="M91.5574 2.01199C90.4722 2.54411 89.4405 3.24346 88.5005 4.14805C80.0864 12.1982 85.413 27.8271 92.9483 34.8814C97.121 38.7811 103.22 40.5978 108.546 38.6062C116.334 35.6948 118.772 26.9225 117.19 19.108C116.013 13.2852 112.765 7.78923 107.973 4.3685C103.181 0.955366 96.7083 -0.488943 91.5574 2.01199Z" fill="#FDBCA0"/>
<path d="M90.1589 30.1684C88.6839 31.6203 86.1161 32.2133 84.1444 31.5215C82.1727 30.8298 80.5525 28.9826 80.0405 26.8389C79.582 24.9157 80.0787 22.7264 81.5002 21.5482C82.9216 20.3699 85.4818 20.4459 86.6969 21.9739L90.1589 30.1684Z" fill="#FDBCA0"/>
<path d="M88.0037 25.0601L89.5551 52.6844C89.7614 57.7927 93.9265 61.852 99.0621 61.9508C104.993 62.0724 109.647 56.9185 108.89 51.0653L105.757 25.4174L88.0037 25.0601Z" fill="#FDBCA0"/>
<path d="M107.866 42.7339L107.476 38.9483C107.476 38.9483 99.834 41.282 92.9483 34.8738C92.9483 34.8814 96.9146 42.0802 107.866 42.7339Z" fill="#DF8370"/>
<path d="M84.9698 20.8868C94.92 20.3775 103.999 13.7337 109.012 5.17427C109.012 5.17427 99.857 -3.46878 86.4753 1.5863C75.3864 5.76719 84.9698 20.8868 84.9698 20.8868Z" fill="#3F4553"/>
<path d="M86.0626 27.2418C84.9163 27.3558 83.9151 26.7401 83.8234 25.8659C83.7546 25.2046 84.2208 24.5888 84.9392 24.2696" stroke="#444359" stroke-width="1.1144" stroke-miterlimit="10" stroke-linecap="round"/>
<path d="M109.968 25.0829C110.197 24.3912 110.594 23.8439 111.038 23.327L111.252 23.9959C110.747 23.8059 110.472 23.517 110.189 23.2357C109.922 22.9393 109.685 22.6428 109.471 22.3235C109.043 21.6926 108.684 21.0237 108.424 20.3167C108.959 20.8564 109.448 21.4113 109.96 21.9435C110.22 22.2019 110.464 22.468 110.732 22.696C110.984 22.9165 111.282 23.1445 111.488 23.1977L112.108 23.3422L111.702 23.8667C111.29 24.4064 110.831 24.9081 110.197 25.273C110.121 25.3186 110.029 25.2882 109.983 25.2198C109.96 25.1665 109.96 25.1209 109.968 25.0829Z" fill="#444359"/>
<path d="M112.207 27.5003C111.901 28.1236 111.381 28.6633 110.709 28.9902C110.044 29.3322 109.219 29.4007 108.485 29.1878C107.736 28.9826 107.155 28.4961 106.659 27.9944C106.437 27.7207 106.215 27.4394 106.032 27.1506C105.871 26.8389 105.703 26.5348 105.581 26.2156C105.864 26.4284 106.108 26.6565 106.353 26.8845L107.109 27.5079C107.644 27.8575 108.149 28.2376 108.73 28.3744C109.287 28.5493 109.884 28.5417 110.472 28.382C111.053 28.2148 111.634 27.8879 112.207 27.5003Z" fill="#444359"/>
<path d="M104.205 17.5649C104.503 18.4467 104.672 19.3589 104.61 20.3395C104.572 20.8184 104.458 21.3429 104.098 21.8066C103.732 22.2779 103.113 22.4832 102.57 22.468C102.012 22.4604 101.462 22.2171 101.087 21.875C100.698 21.533 100.392 21.1377 100.163 20.7196C99.7041 19.8758 99.4137 18.994 99.2685 18.0666C99.2456 17.9222 99.3449 17.7854 99.4901 17.755C99.6277 17.7322 99.75 17.8158 99.7882 17.9374L99.7958 17.9526C100.056 18.7736 100.4 19.6021 100.843 20.3167C101.286 21.0085 101.89 21.647 102.601 21.6242C102.952 21.6394 103.281 21.5482 103.479 21.2973C103.701 21.0541 103.808 20.6588 103.869 20.2559C103.984 19.4425 103.907 18.5455 103.77 17.6865V17.6713C103.747 17.5497 103.839 17.4281 103.961 17.4129C104.06 17.3977 104.167 17.4661 104.205 17.5649Z" fill="#444359"/>
<path d="M115.302 15.8394C115.554 16.5843 115.692 17.3445 115.676 18.1578C115.669 18.5607 115.592 19.0016 115.333 19.4197C115.08 19.8606 114.515 20.1343 114.026 20.1115C113.514 20.1039 113.048 19.8378 112.749 19.5261C112.444 19.2069 112.207 18.8648 112.031 18.4999C111.687 17.7702 111.473 17.0252 111.366 16.2422C111.343 16.0978 111.45 15.961 111.603 15.9382C111.733 15.923 111.855 15.999 111.894 16.1206L111.901 16.1358C112.123 16.82 112.39 17.5193 112.734 18.1274C113.078 18.7204 113.544 19.2905 114.056 19.2601C114.316 19.2677 114.522 19.1917 114.66 18.9788C114.813 18.766 114.889 18.4391 114.935 18.097C115.012 17.4129 114.95 16.6603 114.866 15.9458V15.9306C114.851 15.8089 114.943 15.6949 115.065 15.6721C115.164 15.6721 115.271 15.7405 115.302 15.8394Z" fill="#444359"/>
<path d="M123.556 55.193C123.487 50.556 108.37 46.8464 108.37 46.8464C107.423 47.8878 105.795 49.6438 98.9398 49.6438C92.3827 49.6438 89.7614 47.9562 88.7373 46.8464H82.249C80.8046 46.8464 79.4825 47.6673 78.8788 48.9748C65.8793 77.2605 73.1853 108.853 76.1811 124.383C76.4562 125.812 103.586 124.847 115.822 125.812C118.466 126.033 123.815 72.0458 123.556 55.193Z" fill="#FEE6C6"/>
<path d="M91.9853 95.1927C93.3303 84.3832 94.9734 77.899 96.2344 80.0275C97.3502 81.9127 96.7311 91.3691 95.0575 100.491C95.0651 100.491 91.4121 99.8221 91.9853 95.1927Z" fill="#FEBBA0"/>
<path d="M100.866 95.1927C99.5206 84.3832 97.8775 77.899 96.6165 80.0275C95.5008 81.9127 96.1198 91.3691 97.7934 100.491C97.7858 100.491 101.439 99.8221 100.866 95.1927Z" fill="#FEBBA0"/>
<path d="M145.665 92.5094H128.584L131.297 109.765L100.3 94.7214C100.193 93.566 100.048 92.1369 99.8721 90.6242C98.7029 90.6242 97.5259 90.6242 96.3567 90.6089C96.3643 91.924 96.3873 92.8134 96.3873 92.8134C96.3873 92.8134 95.7835 100.75 97.1668 103.395C99.7957 108.427 126.689 124.634 134.155 126.557C134.622 126.679 135.088 126.77 135.554 126.831C142.761 127.842 147.537 123.82 147.484 116.584L145.665 92.5094Z" fill="#FEBBA0"/>
<path d="M92.6731 90.5481C92.4056 92.2509 92.1687 93.8928 91.9853 95.1927L61.8824 109.058L63.151 92.5169H46.0705L44.2593 116.606C44.2134 123.843 48.9899 127.857 56.1889 126.853C56.6551 126.785 57.1213 126.694 57.5874 126.58C65.0539 124.657 90.0671 111.209 95.4091 103.364C96.991 101.046 96.2421 93.2391 96.2421 93.2391C96.2421 93.2391 96.2421 92.1597 96.2115 90.6241C95.0346 90.6013 93.8577 90.5785 92.6731 90.5481Z" fill="#FEBBA0"/>
<path d="M67.5224 101.951C74.2018 82.3009 74.1483 82.2857 82.3484 46.8545C76.8613 47.227 76.2958 46.3376 71.9702 48.5725C58.9937 55.2771 46.7736 77.299 43.1741 101.951H67.5224Z" fill="#FEE6C6"/>
<path d="M126.995 100.012C123.066 86.0936 108.37 46.854 108.37 46.854C123.066 46.3599 143.12 65.4172 147.919 97.4656L126.995 100.012Z" fill="#FEE6C6"/>
<path d="M123.563 69.2788L120.468 94.577" stroke="#EED2AD" stroke-width="1.5925" stroke-miterlimit="10" stroke-linecap="round"/>
<path d="M70.3347 73.4293L72.7955 100.491" stroke="#EED2AD" stroke-width="1.5925" stroke-miterlimit="10" stroke-linecap="round"/>
</svg>
